<?xml version="1.0" encoding="UTF-8" standalone="no"?>
<!-- Created with Inkscape (http://www.inkscape.org/) -->

<svg
   xmlns:dc="http://purl.org/dc/elements/1.1/"
   xmlns:cc="http://creativecommons.org/ns#"
   xmlns:rdf="http://www.w3.org/1999/02/22-rdf-syntax-ns#"
   xmlns:svg="http://www.w3.org/2000/svg"
   xmlns="http://www.w3.org/2000/svg"
   xmlns:sodipodi="http://sodipodi.sourceforge.net/DTD/sodipodi-0.dtd"
   xmlns:inkscape="http://www.inkscape.org/namespaces/inkscape"
   width="210mm"
   height="297mm"
   viewBox="0 0 210 297"
   version="1.1"
   id="svg8"
   sodipodi:docname="logo.svg"
   inkscape:version="0.92.5 (2060ec1f9f, 2020-04-08)">
  <defs
     id="defs2" />
  <sodipodi:namedview
     id="base"
     pagecolor="#ffffff"
     bordercolor="#666666"
     borderopacity="1.0"
     inkscape:pageopacity="0.0"
     inkscape:pageshadow="2"
     inkscape:zoom="1.5498551"
     inkscape:cx="314.69834"
     inkscape:cy="724.95716"
     inkscape:document-units="mm"
     inkscape:current-layer="g64"
     showgrid="false"
     inkscape:window-width="1920"
     inkscape:window-height="1027"
     inkscape:window-x="0"
     inkscape:window-y="24"
     inkscape:window-maximized="1" />
  <metadata
     id="metadata5">
    <rdf:RDF>
      <cc:Work
         rdf:about="">
        <dc:format>image/svg+xml</dc:format>
        <dc:type
           rdf:resource="http://purl.org/dc/dcmitype/StillImage" />
      </cc:Work>
    </rdf:RDF>
  </metadata>
  <g
     inkscape:groupmode="layer"
     id="layer3"
     inkscape:label="Layer 3" />
  <g
     inkscape:groupmode="layer"
     id="layer2"
     inkscape:label="Layer 2"
     style="display:inline">
    <g
       id="g95"
       transform="matrix(1.3134985,0,0,1.3134985,-41.597265,-33.005699)">
      <text
         id="text12"
         y="113.67876"
         x="45.233341"
         style="font-style:normal;font-weight:normal;font-size:33.91875076px;line-height:1.25;font-family:sans-serif;letter-spacing:0px;word-spacing:0px;fill:#000000;fill-opacity:1;stroke:none;stroke-width:0.84796876"
         xml:space="preserve"><tspan
           style="font-style:normal;font-variant:normal;font-weight:normal;font-stretch:normal;font-size:25.39999962px;font-family:Ubuntu;-inkscape-font-specification:Ubuntu;letter-spacing:0px;word-spacing:0px;stroke-width:0.84796876"
           y="113.67876"
           x="45.233341"
           sodipodi:role="line"
           id="tspan114"><tspan
   dx="0"
   id="tspan116"
   style="font-style:normal;font-variant:normal;font-weight:normal;font-stretch:normal;font-size:25.39999962px;font-family:Ubuntu;-inkscape-font-specification:Ubuntu;letter-spacing:0px;word-spacing:0px;stroke-width:0.84796876">E  tra </tspan>Meal</tspan></text>
      <g
         transform="matrix(0.72910305,0,0,0.76007955,28.699715,55.897138)"
         id="g64">
        <path
           style="fill:#aa0000;stroke:#000000;stroke-width:0.34873924;stroke-miterlimit:4;stroke-dasharray:none"
           d="m 44.547904,76.193062 c -0.69704,-0.42183 -0.65833,-0.63683 0.49257,-2.737 0.59237,-1.08112 1.34699,-2.43092 1.67685,-2.99964 1.30598,-2.25204 3.53195,-6.2398 3.98404,-7.13726 0.26276,-0.52167 0.53153,-1.00887 0.59726,-1.08268 0.0657,-0.0738 0.91841,-1.6171 1.89493,-3.4295 2.12605,-3.94582 3.06606,-5.48172 3.33942,-5.45638 0.41547,0.0385 0.27454,1.67636 -0.3039,3.5313 -0.78877,2.52959 -1.13794,3.34578 -2.44988,5.72665 -1.18442,2.14942 -1.2045,2.17527 -2.09381,2.69146 -0.79871,0.46361 -0.96326,0.64138 -1.48939,1.60895 -0.32559,0.59814 -0.92966,1.91521 -1.34293,2.92655 -1.66247,4.06813 -2.8395,6.39442 -3.30101,6.5241 -0.3311,0.093 -0.6675,0.0372 -1.00415,-0.16654 z"
           id="path47"
           inkscape:connector-curvature="0" />
        <path
           style="fill:#aa0000;stroke:#000000;stroke-width:0.33646688;stroke-miterlimit:4;stroke-dasharray:none"
           d="m 55.530554,76.987772 c -0.93011,-0.31196 -1.11361,-0.65081 -2.09252,-3.8641 -1.25029,-4.10411 -2.75835,-7.62889 -4.25042,-9.93448 -0.48661,-0.75193 -0.79326,-1.07822 -1.46743,-1.56139 -0.78753,-0.56439 -0.90181,-0.70055 -1.50446,-1.7924 -0.59579,-1.07933 -1.96843,-4.26669 -2.33573,-5.4235 -0.0832,-0.26207 -0.0834,-0.47022 -5.6e-4,-0.46259 0.093,0.009 0.64522,1.04548 1.44117,2.70599 0.95426,1.99066 1.33242,2.68635 1.45327,2.66915 0.23629,-0.0333 0.0315,-0.57725 -1.19723,-3.18102 -1.59432,-3.37846 -1.32345,-3.33596 0.51196,0.0803 2.33936,4.35423 2.0933,3.18704 -0.47295,-2.24342 -0.2119,-0.44824 -0.32557,-0.80952 -0.25265,-0.80284 0.0729,0.007 0.76216,1.17999 1.53174,2.60728 0.76961,1.42728 1.44594,2.62406 1.503,2.65947 0.37303,0.23151 0.11164,-0.4734 -1.02084,-2.75305 -0.70266,-1.41416 -1.26753,-2.66615 -1.25558,-2.78203 0.0264,-0.25525 0.3721,0.26857 1.92957,2.92361 1.46846,2.50334 1.82607,3.39907 1.77195,4.4383 -0.0736,1.41348 0.10777,2.04154 1.25566,4.34812 1.41315,2.83958 2.51131,4.62405 4.34426,7.05932 0.85021,1.12957 1.69787,2.34405 1.88371,2.69881 0.59399,1.13387 0.347,2.04505 -0.6948,2.56351 -0.39894,0.19854 -0.60298,0.20737 -1.08115,0.047 z"
           id="path60"
           inkscape:connector-curvature="0" />
        <g
           id="g1107"
           transform="matrix(0.33080086,-0.02668335,0.03211611,0.25795785,103.02572,30.213769)">
          <path
             style="fill:#a2a2a2;stroke-width:0.27058825"
             d="m 91.973254,115.51269 c -0.417868,-0.21746 -0.75976,-0.62102 -0.75976,-0.8968 0,-0.68621 -0.789198,-1.23199 -6.216223,-4.29894 -5.660655,-3.19898 -9.046716,-4.85906 -13.813827,-6.77246 -7.584302,-3.04417 -13.334738,-4.774189 -18.234251,-5.485782 -3.714718,-0.539513 -10.407874,-1.212129 -11.984549,-1.204359 -1.875513,0.0092 -4.087668,1.002724 -7.04776,3.165161 -2.370015,1.73137 -2.700409,1.8945 -3.400014,1.67869 -0.543414,-0.16762 -0.967952,-0.62293 -1.421111,-1.52412 l -0.646204,-1.285086 1.578706,-4.11191 c 3.56785,-9.29285 5.081472,-14.129168 5.800967,-18.53522 0.406761,-2.49093 0.406959,-2.838993 0.0024,-4.174019 -0.44038,-1.453089 -0.443988,-1.456478 -1.550443,-1.456478 -3.778885,0 -10.626998,-2.45082 -13.846295,-4.955348 -2.111948,-1.643039 -4.31392,-4.707384 -5.396707,-7.510252 -1.157896,-2.997296 -1.438948,-8.336552 -0.652778,-12.401075 0.517136,-2.673609 3.311444,-6.829672 5.854791,-8.708016 2.731923,-2.017613 5.022497,-2.92774 9.944607,-3.951343 3.584699,-0.745474 4.897893,-0.911618 6.292138,-0.796073 l 1.761975,0.14602 2.520311,-1.801782 c 4.797197,-3.429538 9.443439,-5.833272 13.295096,-6.878221 5.268734,-1.429399 14.0028,-1.430631 19.063081,-0.0027 2.649125,0.747548 5.561372,2.104953 8.244996,3.843013 2.90255,1.879848 4.512717,3.396478 6.320621,5.953448 0.802133,1.134477 1.582747,2.066085 1.734699,2.07024 0.151952,0.0042 0.835737,-0.349855 1.519521,-0.786689 1.745891,-1.115358 4.725362,-2.257518 7.321328,-2.806581 3.341831,-0.706816 9.260481,-0.645174 12.140531,0.126442 5.43594,1.456385 9.78494,4.733039 12.00117,9.04201 1.11512,2.168106 1.16458,2.371995 1.31781,5.43285 0.0888,1.774246 0.0281,4.062073 -0.13729,5.174946 -0.23596,1.587559 -0.21421,2.371954 0.10657,3.84265 0.49797,2.283045 0.50447,6.64887 0.0145,9.744688 -0.6189,3.910489 -3.4755,8.452802 -7.14528,11.361791 -0.79484,0.630057 -1.62813,1.313088 -1.85176,1.517846 -0.82107,0.751787 -5.45082,2.692679 -7.32914,3.072536 -1.06367,0.215107 -2.71487,0.393174 -3.66934,0.395705 -1.13226,0.003 -1.77979,0.119735 -1.86311,0.335872 -0.53929,1.398877 -4.337905,16.920342 -4.668719,19.076806 -0.229569,1.49647 -0.563936,5.16563 -0.74304,8.1537 -0.179105,2.98807 -0.427828,5.54231 -0.552719,5.6761 -0.278838,0.29871 -2.163815,0.94379 -2.731314,0.93473 -0.227928,-0.004 -0.756307,-0.18454 -1.174175,-0.402 z"
             id="path1121"
             inkscape:connector-curvature="0" />
          <path
             style="fill:#5c5c5c;stroke-width:0.27058825"
             d="m 92.042323,115.39925 c -0.303904,-0.29152 -0.552553,-0.75394 -0.552553,-1.02762 0,-0.66911 -0.07223,-0.71861 -5.71081,-3.9138 -5.669073,-3.21247 -10.810494,-5.74714 -14.666875,-7.23063 -1.480273,-0.56944 -3.404597,-1.34106 -4.276278,-1.7147 -2.276601,-0.97586 -8.464414,-2.766666 -11.599934,-3.357129 -3.142348,-0.591749 -12.050434,-1.572423 -14.280562,-1.572121 -1.991647,2.65e-4 -4.150055,0.962982 -7.350099,3.278356 -2.742329,1.984194 -3.179517,2.005344 -4.230598,0.204684 l -0.643626,-1.10263 1.722073,-4.43677 c 3.644452,-9.389603 5.331533,-15.081439 5.910369,-19.940267 0.193988,-1.62836 -0.297699,-3.667028 -0.961996,-3.9887 -0.225619,-0.109254 -1.475711,-0.330124 -2.777981,-0.490828 -2.580867,-0.318484 -6.160989,-1.382928 -8.533714,-2.537244 -4.523994,-2.200901 -7.31299,-5.465482 -9.28806,-10.871881 -0.702566,-1.923146 -0.775751,-2.464868 -0.78767,-5.830375 -0.01503,-4.245307 0.370118,-5.695717 2.392733,-9.010581 2.696829,-4.419833 7.108621,-7.24262 13.058945,-8.355477 1.671473,-0.312606 3.598502,-0.683716 4.282286,-0.824689 0.683784,-0.140973 1.999121,-0.182982 2.922971,-0.09335 l 1.679726,0.162961 2.740698,-1.967335 c 7.454734,-5.351175 13.736787,-7.746844 21.137849,-8.060946 10.326835,-0.438272 19.930211,3.780204 25.311382,11.118534 0.826931,1.127689 1.617917,2.11817 1.757746,2.201068 0.139831,0.0829 0.659024,-0.142097 1.153764,-0.499988 2.408996,-1.742657 5.677223,-2.893433 10.004461,-3.522674 3.29088,-0.47854 6.96006,-0.302607 10.09223,0.483913 5.92858,1.488727 10.98427,6.046126 12.69058,11.439784 0.7178,2.268978 0.77399,5.94783 0.12475,8.167422 -0.43547,1.488715 -0.42988,1.59848 0.17292,3.396769 0.56042,1.671887 0.60988,2.237208 0.4929,5.634419 -0.11023,3.201489 -0.24365,4.095185 -0.87679,5.873182 -1.37113,3.850475 -3.72602,7.053111 -7.31002,9.941596 -3.46196,2.790129 -7.15201,4.185393 -11.90636,4.501975 l -2.33378,0.155401 -2.026892,7.818003 c -2.500606,9.645207 -3.001391,12.527298 -3.435927,19.774288 l -0.342472,5.71163 -1.037858,0.50789 c -1.323088,0.64748 -2.025425,0.64176 -2.717528,-0.0221 z"
             id="path1119"
             inkscape:connector-curvature="0" />
          <path
             style="fill:#a80000;stroke-width:0.27058825"
             d="m 92.3186,115.67552 c -0.227928,-0.14748 -0.296307,-0.26998 -0.151952,-0.27221 0.144354,-0.002 0.113273,-0.14717 -0.06907,-0.32208 -0.182343,-0.17491 -0.331532,-0.51189 -0.331532,-0.74885 0,-0.67244 -0.899352,-1.30181 -5.939946,-4.15678 C 74.010704,103.48341 61.936828,98.813554 53.087331,97.51311 49.298386,96.95632 42.783075,96.318023 40.888678,96.318023 c -2.002942,0 -4.364401,1.057911 -7.330015,3.283777 -2.450774,1.83945 -3.161561,1.91804 -3.949391,0.43671 l -0.558336,-1.04983 2.041271,-5.376839 c 3.62322,-9.543797 4.75618,-13.32336 5.424945,-18.097658 0.301491,-2.152331 0.283774,-2.527434 -0.181501,-3.842748 -0.483571,-1.367037 -0.57568,-1.461914 -1.482572,-1.527108 -3.223583,-0.231739 -8.021827,-1.497924 -10.724559,-2.830048 -2.684885,-1.323328 -4.60356,-2.933673 -6.219556,-5.220079 -1.404173,-1.986703 -3.224072,-5.777761 -3.224072,-6.71611 0,-0.197207 -0.155406,-0.408246 -0.345346,-0.468974 -0.434334,-0.138864 -0.498594,-7.798298 -0.06789,-8.092362 0.1526,-0.104188 0.520877,-0.892638 0.818393,-1.75211 0.798671,-2.30722 3.477264,-6.048491 5.347717,-7.469318 2.709575,-2.058237 4.994077,-2.965923 10.020377,-3.981327 3.610479,-0.729382 4.876659,-0.881721 6.221232,-0.748499 l 1.688156,0.167265 2.675054,-1.903507 c 5.70942,-4.062691 10.204404,-6.239112 15.221928,-7.370287 1.063665,-0.239797 2.022646,-0.559113 2.131067,-0.709591 0.283667,-0.393699 10.119925,-0.369801 10.380522,0.02522 0.108422,0.164349 0.756592,0.388113 1.440376,0.497255 3.208856,0.512179 7.268466,2.192906 10.774786,4.46089 2.90752,1.880665 4.414437,3.310365 6.357573,6.031796 0.92664,1.297793 1.810976,2.359623 1.965191,2.359623 0.154215,0 0.838947,-0.368635 1.521626,-0.819188 3.992729,-2.635116 10.326896,-4.018494 15.849326,-3.461485 6.23317,0.628696 11.02016,3.180755 14.13132,7.533745 1.11466,1.559594 2.44527,4.551651 2.44527,5.498542 0,0.288191 0.12433,0.523984 0.27628,0.523984 0.1648,0 0.27628,1.015898 0.27628,2.517662 0,1.384714 -0.0987,2.517662 -0.21929,2.517662 -0.12061,0 -0.38462,0.714889 -0.5867,1.588645 -0.30426,1.315577 -0.30488,1.736943 -0.004,2.451408 0.20009,0.474518 0.49519,0.94804 0.65577,1.052269 0.38505,0.249929 0.39988,9.164402 0.0157,9.427171 -0.15195,0.103924 -0.56641,1.023759 -0.92103,2.044074 -0.95076,2.735599 -2.87391,5.527456 -5.56792,8.083021 -3.90578,3.705056 -7.84156,5.459156 -12.91933,5.757894 -1.40548,0.08269 -2.66506,0.281893 -2.79907,0.442682 -0.39589,0.474984 -4.417662,16.489047 -4.865484,19.37357 -0.226293,1.4576 -0.555543,5.09496 -0.731666,8.08302 -0.302711,5.13571 -0.355422,5.46577 -0.963711,6.03464 -0.746778,0.69838 -1.992589,0.98806 -2.589175,0.60204 z m 8.2883,-34.214094 c 0,-0.137157 -0.18649,-0.249376 -0.41442,-0.249376 -0.427236,0 -0.548877,0.31271 -0.23774,0.611169 0.22073,0.21173 0.65216,-0.02761 0.65216,-0.361793 z"
             id="path1117"
             inkscape:connector-curvature="0" />
          <path
             style="fill:#930101;stroke-width:0.27058825"
             d="m 92.3186,115.67552 c -0.227928,-0.14748 -0.296307,-0.26998 -0.151952,-0.27221 0.144354,-0.002 0.113273,-0.14717 -0.06907,-0.32208 -0.182343,-0.17491 -0.331532,-0.51189 -0.331532,-0.74885 0,-0.67244 -0.899352,-1.30181 -5.939946,-4.15678 C 74.010704,103.48341 61.936828,98.813554 53.087331,97.51311 49.298386,96.95632 42.783075,96.318023 40.888678,96.318023 c -2.002942,0 -4.364401,1.057911 -7.330015,3.283777 -2.450774,1.83945 -3.161561,1.91804 -3.949391,0.43671 l -0.558336,-1.04983 2.041271,-5.376839 c 3.62322,-9.543797 4.75618,-13.32336 5.424945,-18.097658 0.301491,-2.152331 0.283774,-2.527434 -0.181501,-3.842748 -0.483571,-1.367037 -0.57568,-1.461914 -1.482572,-1.527108 -3.223583,-0.231739 -8.021827,-1.497924 -10.724559,-2.830048 -2.684885,-1.323328 -4.60356,-2.933673 -6.219556,-5.220079 -1.404173,-1.986703 -3.224072,-5.777761 -3.224072,-6.71611 0,-0.197207 -0.155406,-0.408246 -0.345346,-0.468974 -0.434334,-0.138864 -0.498594,-7.798298 -0.06789,-8.092362 0.1526,-0.104188 0.520877,-0.892638 0.818393,-1.75211 0.798671,-2.30722 3.477264,-6.048491 5.347717,-7.469318 2.709575,-2.058237 4.994077,-2.965923 10.020377,-3.981327 3.610479,-0.729382 4.876659,-0.881721 6.221232,-0.748499 l 1.688156,0.167265 2.675054,-1.903507 c 5.70942,-4.062691 10.204404,-6.239112 15.221928,-7.370287 1.063665,-0.239797 2.022646,-0.559113 2.131067,-0.709591 0.283667,-0.393699 10.119925,-0.369801 10.380522,0.02522 0.108422,0.164349 0.756592,0.388113 1.440376,0.497255 3.208856,0.512179 7.268466,2.192906 10.774786,4.46089 2.90752,1.880665 4.414437,3.310365 6.357573,6.031796 0.92664,1.297793 1.810976,2.359623 1.965191,2.359623 0.154215,0 0.838947,-0.368635 1.521626,-0.819188 3.992729,-2.635116 10.326896,-4.018494 15.849326,-3.461485 6.23317,0.628696 11.02016,3.180755 14.13132,7.533745 1.11466,1.559594 2.44527,4.551651 2.44527,5.498542 0,0.288191 0.12433,0.523984 0.27628,0.523984 0.1648,0 0.27628,1.015898 0.27628,2.517662 0,1.384714 -0.0987,2.517662 -0.21929,2.517662 -0.12061,0 -0.38462,0.714889 -0.5867,1.588645 -0.30426,1.315577 -0.30488,1.736943 -0.004,2.451408 0.20009,0.474518 0.49519,0.94804 0.65577,1.052269 0.38505,0.249929 0.39988,9.164402 0.0157,9.427171 -0.15195,0.103924 -0.56641,1.023759 -0.92103,2.044074 -0.95076,2.735599 -2.87391,5.527456 -5.56792,8.083021 -3.90578,3.705056 -7.84156,5.459156 -12.91933,5.757894 -1.40548,0.08269 -2.66506,0.281893 -2.79907,0.442682 -0.39589,0.474984 -4.417662,16.489047 -4.865484,19.37357 -0.226293,1.4576 -0.555543,5.09496 -0.731666,8.08302 -0.302711,5.13571 -0.355422,5.46577 -0.963711,6.03464 -0.746778,0.69838 -1.992589,0.98806 -2.589175,0.60204 z m 1.105106,-6.09754 c 0,-2.87889 0.746408,-8.83539 1.645,-13.127448 0.786167,-3.755075 1.500002,-6.706061 2.404007,-9.938141 0.550373,-1.967751 1.055633,-3.879153 1.122799,-4.247558 0.13222,-0.725235 0.301395,-0.627921 -5.221848,-3.003775 -1.167163,-0.502064 -3.30519,-1.704073 -4.751169,-2.671131 l -2.629051,-1.758288 -2.238016,1.079394 c -1.524577,0.735303 -3.356727,1.322983 -5.74734,1.843519 -5.387926,1.173175 -7.792957,1.43404 -13.040866,1.414495 -4.894584,-0.01823 -5.923048,-0.158597 -12.156168,-1.659105 -3.049134,-0.734023 -7.016062,-3.027603 -9.993256,-5.777852 -1.250901,-1.155552 -1.333833,-1.188181 -2.69977,-1.062282 -0.775075,0.07144 -1.477717,0.195591 -1.561429,0.275891 -0.08371,0.0803 -0.01951,0.604398 0.142672,1.164665 0.463402,1.600852 0.348992,5.533104 -0.248502,8.540971 -0.724605,3.647764 -2.61537,8.917681 -4.703082,13.108375 -0.932845,1.872515 -1.627738,3.470131 -1.544205,3.550259 0.08353,0.08013 0.645025,-0.167364 1.247763,-0.549979 0.91861,-0.583133 1.802183,-0.787075 5.462077,-1.260726 7.140942,-0.92416 12.026865,-0.565886 21.655981,1.587985 6.568171,1.469191 17.797624,6.565621 27.46701,12.465781 2.431234,1.48351 4.538533,2.80951 4.682888,2.94667 0.593384,0.56381 0.704505,0.10297 0.704505,-2.92172 z M 100.6069,81.461426 c 0,-0.137157 -0.18649,-0.249376 -0.41442,-0.249376 -0.427236,0 -0.548877,0.31271 -0.23774,0.611169 0.22073,0.21173 0.65216,-0.02761 0.65216,-0.361793 z m 5.77917,-3.195682 c 4.55774,-0.742236 9.55876,-4.377677 11.80557,-8.581937 1.90767,-3.569679 2.41338,-5.398207 2.43043,-8.787971 0.008,-1.626681 -0.0606,-3.030749 -0.15275,-3.120152 -0.0922,-0.08941 -0.70084,0.127971 -1.35254,0.483062 -2.32457,1.266562 -2.45889,0.482018 -0.59656,-3.484222 1.88985,-4.024849 2.39946,-6.186469 2.02661,-8.596254 -0.79895,-5.163598 -5.36726,-9.586614 -11.47304,-11.108134 -2.81387,-0.7012 -8.60678,-0.687581 -11.716442,0.02755 -2.166638,0.498261 -6.703129,2.27624 -6.690495,2.622194 0.0033,0.08904 0.562712,0.986395 1.243244,1.994132 1.416697,2.097852 1.629733,3.442824 0.676414,4.270406 -1.124225,0.975944 -1.787231,0.361998 -4.586965,-4.247536 -2.858481,-4.706257 -4.005841,-6.119419 -6.697808,-8.249449 -2.288757,-1.810991 -7.172583,-4.143402 -10.245555,-4.89306 -4.435863,-1.082137 -11.263176,-1.076852 -15.709634,0.01216 -2.583738,0.632802 -6.014474,1.997952 -8.423807,3.351981 -3.23138,1.816013 -7.641243,5.398074 -9.509592,7.724485 -1.335681,1.66315 -2.845209,0.861283 -2.12352,-1.128023 0.211178,-0.582103 0.385831,-1.130845 0.388119,-1.219428 0.0065,-0.251403 -5.282936,1.007085 -7.312086,1.739728 -2.664389,0.962002 -5.860934,2.621228 -7.646837,3.969232 -1.245406,0.940036 -1.78917,1.612435 -2.671575,3.303578 -1.443553,2.766589 -1.811052,4.536412 -1.628907,7.844597 0.325585,5.913403 3.247419,10.237875 8.763763,12.970842 3.699161,1.832681 6.053754,2.342507 9.832262,2.12893 1.684206,-0.0952 3.211734,-0.261744 3.394506,-0.370102 0.248942,-0.147582 0.189138,-0.517408 -0.238371,-1.474101 -0.313876,-0.702404 -0.708894,-2.064128 -0.877817,-3.026058 -0.258282,-1.470781 -0.237278,-1.907037 0.132053,-2.742779 0.666153,-1.507406 1.369666,-1.309767 2.122529,0.596289 0.201505,0.510158 1.050862,2.120137 1.887461,3.57773 2.11007,3.676344 5.252818,6.694668 8.751697,8.405213 3.357639,1.641495 4.598844,1.952074 10.449823,2.614788 3.725957,0.422024 5.752385,0.524623 7.853658,0.397629 2.871409,-0.173533 7.711144,-0.916309 10.358514,-1.589768 3.789437,-0.963986 8.856346,-3.151249 13.836222,-5.972764 2.423266,-1.372982 3.225551,-1.613938 3.225551,-0.968759 0,0.436088 -4.26697,4.369225 -6.147153,5.666221 -0.721773,0.497898 -1.312314,0.943344 -1.312314,0.989884 0,0.204397 7.939555,4.215338 9.218669,4.657129 1.667392,0.575898 5.858563,0.678189 8.716673,0.21274 z"
             id="path1115"
             inkscape:connector-curvature="0" />
          <path
             style="fill:#620202;stroke-width:0.27058825"
             d="m 92.3186,115.67552 c -0.227928,-0.14748 -0.296307,-0.26998 -0.151952,-0.27221 0.144354,-0.002 0.113273,-0.14717 -0.06907,-0.32208 -0.182343,-0.17491 -0.331532,-0.51189 -0.331532,-0.74885 0,-0.67244 -0.899352,-1.30181 -5.939946,-4.15678 C 74.010704,103.48341 61.936828,98.813554 53.087331,97.51311 49.298386,96.95632 42.783075,96.318023 40.888678,96.318023 c -2.002942,0 -4.364401,1.057911 -7.330015,3.283777 -2.450774,1.83945 -3.161561,1.91804 -3.949391,0.43671 l -0.558336,-1.04983 2.041271,-5.376839 c 3.62322,-9.543797 4.75618,-13.32336 5.424945,-18.097658 0.301491,-2.152331 0.283774,-2.527434 -0.181501,-3.842748 -0.483571,-1.367037 -0.57568,-1.461914 -1.482572,-1.527108 -3.223583,-0.231739 -8.021827,-1.497924 -10.724559,-2.830048 -2.684885,-1.323328 -4.60356,-2.933673 -6.219556,-5.220079 -1.404173,-1.986703 -3.224072,-5.777761 -3.224072,-6.71611 0,-0.197207 -0.155406,-0.408246 -0.345346,-0.468974 -0.434334,-0.138864 -0.498594,-7.798298 -0.06789,-8.092362 0.1526,-0.104188 0.520877,-0.892638 0.818393,-1.75211 0.798671,-2.30722 3.477264,-6.048491 5.347717,-7.469318 2.709575,-2.058237 4.994077,-2.965923 10.020377,-3.981327 3.610479,-0.729382 4.876659,-0.881721 6.221232,-0.748499 l 1.688156,0.167265 2.675054,-1.903507 c 5.70942,-4.062691 10.204404,-6.239112 15.221928,-7.370287 1.063665,-0.239797 2.022646,-0.559113 2.131067,-0.709591 0.283667,-0.393699 10.119925,-0.369801 10.380522,0.02522 0.108422,0.164349 0.756592,0.388113 1.440376,0.497255 3.208856,0.512179 7.268466,2.192906 10.774786,4.46089 2.90752,1.880665 4.414437,3.310365 6.357573,6.031796 0.92664,1.297793 1.810976,2.359623 1.965191,2.359623 0.154215,0 0.838947,-0.368635 1.521626,-0.819188 3.992729,-2.635116 10.326896,-4.018494 15.849326,-3.461485 6.23317,0.628696 11.02016,3.180755 14.13132,7.533745 1.11466,1.559594 2.44527,4.551651 2.44527,5.498542 0,0.288191 0.12433,0.523984 0.27628,0.523984 0.1648,0 0.27628,1.015898 0.27628,2.517662 0,1.384714 -0.0987,2.517662 -0.21929,2.517662 -0.12061,0 -0.38462,0.714889 -0.5867,1.588645 -0.30426,1.315577 -0.30488,1.736943 -0.004,2.451408 0.20009,0.474518 0.49519,0.94804 0.65577,1.052269 0.38505,0.249929 0.39988,9.164402 0.0157,9.427171 -0.15195,0.103924 -0.56641,1.023759 -0.92103,2.044074 -0.95076,2.735599 -2.87391,5.527456 -5.56792,8.083021 -3.90578,3.705056 -7.84156,5.459156 -12.91933,5.757894 -1.40548,0.08269 -2.66506,0.281893 -2.79907,0.442682 -0.39589,0.474984 -4.417662,16.489047 -4.865484,19.37357 -0.226293,1.4576 -0.555543,5.09496 -0.731666,8.08302 -0.302711,5.13571 -0.355422,5.46577 -0.963711,6.03464 -0.746778,0.69838 -1.992589,0.98806 -2.589175,0.60204 z m 1.381382,-5.8682 c 0,-5.91388 2.514777,-18.862256 5.410283,-27.857089 0.151905,-0.471884 -0.843763,-0.985816 -5.619109,-2.900405 -1.102542,-0.442043 -3.094037,-1.543375 -4.42555,-2.447404 -1.331509,-0.904026 -2.568877,-1.731396 -2.749705,-1.838601 -0.18118,-0.107408 -1.228713,0.239814 -2.333352,0.773432 -2.156302,1.041641 -6.83714,2.252101 -11.388671,2.945103 -3.805224,0.579372 -10.856414,0.578534 -14.119155,-0.0016 C 51.09822,77.169008 47.07465,75.34696 42.675291,71.326091 41.54093,70.289323 41.488167,70.27184 39.952508,70.423875 c -0.861304,0.08527 -1.636314,0.222482 -1.722245,0.30491 -0.08593,0.08243 -0.01068,0.754766 0.167225,1.494082 0.486382,2.021251 0.390341,5.437851 -0.235109,8.363806 -0.780011,3.649015 -2.967948,9.690813 -4.926546,13.604228 -0.909931,1.818104 -1.592492,3.401759 -1.516804,3.519236 0.07569,0.117474 0.781857,-0.139987 1.569263,-0.572135 2.125335,-1.166436 8.512885,-1.996583 13.859093,-1.801175 4.012273,0.146652 11.352679,1.37564 15.504007,2.595802 4.57188,1.343772 11.659362,4.331091 17.42942,7.346351 3.543625,1.8518 12.032365,6.9078 12.767938,7.60475 0.215606,0.20428 0.495336,0.31016 0.621622,0.2353 0.126286,-0.075 0.22961,-1.56519 0.22961,-3.31171 z M 100.6069,81.461426 c 0,-0.137157 -0.18649,-0.249376 -0.41442,-0.249376 -0.427236,0 -0.548877,0.31271 -0.23774,0.611169 0.22073,0.21173 0.65216,-0.02761 0.65216,-0.361793 z m 5.88325,-2.911923 c 2.0005,-0.354741 3.73355,-1.084304 6.0394,-2.542404 2.56711,-1.623309 4.61365,-3.847579 6.09395,-6.623185 1.96645,-3.687148 2.26243,-4.790499 2.27701,-8.488208 0.007,-1.772509 -0.0889,-3.320913 -0.21301,-3.440897 -0.12415,-0.119984 -0.70824,0.04823 -1.29798,0.373809 -1.22497,0.676273 -1.92975,0.758007 -1.92975,0.223796 0,-0.202491 0.62201,-1.707274 1.38225,-3.343961 1.88,-4.047352 2.30868,-5.735242 2.07221,-8.159187 -0.50681,-5.194972 -5.83279,-10.432692 -12.03427,-11.834825 -2.44599,-0.553029 -8.77283,-0.545614 -11.395704,0.01336 -2.001436,0.426532 -7.100349,2.537139 -7.098713,2.938389 5.52e-4,0.118564 0.497493,0.931118 1.104465,1.805674 1.53552,2.212457 1.799521,4.060374 0.641008,4.48682 -0.79162,0.291393 -1.576533,-0.526121 -3.404011,-3.545401 -0.987689,-1.631816 -2.261045,-3.657787 -2.829677,-4.502158 -3.227598,-4.7927 -10.269917,-8.964916 -17.041544,-10.096246 -2.854506,-0.4769 -9.420928,-0.352308 -12.320986,0.233779 -4.531634,0.91582 -8.670716,2.784883 -12.980002,5.861311 -2.479532,1.770154 -5.606202,4.575738 -6.408672,5.750549 -0.492432,0.720918 -1.402724,0.815831 -1.659855,0.173067 -0.09806,-0.245137 0.0154,-0.962398 0.252137,-1.593914 0.23674,-0.631515 0.327581,-1.209187 0.20187,-1.283715 -0.552987,-0.327837 -7.048231,1.500287 -9.783355,2.75358 -5.060939,2.319032 -6.883421,3.742966 -8.361065,6.532635 -1.33398,2.518442 -1.723168,4.07555 -1.722219,6.890444 0.0016,4.643279 1.509851,8.233132 4.754921,11.317135 1.461971,1.389408 2.52244,2.090158 4.866651,3.215845 3.816126,1.8325 5.82376,2.200733 10.041233,1.841717 1.642255,-0.139796 3.058657,-0.323951 3.14756,-0.409231 0.0889,-0.08528 -0.148181,-1.029099 -0.526852,-2.097377 -0.988866,-2.789705 -1.133325,-3.946266 -0.635624,-5.088887 0.230272,-0.528659 0.534906,-0.961198 0.676963,-0.961198 0.142058,0 0.53581,0.655906 0.875005,1.457572 1.683698,3.979301 5.495739,8.841158 8.433804,10.756431 1.373462,0.895337 5.472834,2.824292 6.634734,3.121968 1.605314,0.411277 10.189074,1.356328 12.337768,1.358355 4.421831,0.0042 12.063408,-1.372515 16.049603,-2.891469 2.257936,-0.860393 6.612055,-2.939386 10.348957,-4.941391 1.64818,-0.882995 2.279282,-1.110772 2.279282,-0.822632 0,0.481571 -4.366369,4.423331 -6.008521,5.424221 -0.645525,0.393447 -1.170904,0.834616 -1.167506,0.980375 0.0078,0.33367 8.259373,4.60261 9.778345,5.0588 1.385134,0.415992 6.40836,0.472912 8.53019,0.09666 z"
             id="path1113"
             inkscape:connector-curvature="0" />
          <path
             style="fill:#310202;stroke-width:0.27058825"
             d="m 92.3186,115.67552 c -0.227928,-0.14748 -0.296307,-0.26998 -0.151952,-0.27221 0.144354,-0.002 0.113273,-0.14717 -0.06907,-0.32208 -0.182343,-0.17491 -0.331532,-0.51189 -0.331532,-0.74885 0,-0.67244 -0.899352,-1.30181 -5.939946,-4.15678 C 74.010704,103.48341 61.936828,98.813554 53.087331,97.51311 49.298386,96.95632 42.783075,96.318023 40.888678,96.318023 c -2.002942,0 -4.364401,1.057911 -7.330015,3.283777 -2.450774,1.83945 -3.161561,1.91804 -3.949391,0.43671 l -0.558336,-1.04983 2.041271,-5.376839 c 3.62322,-9.543797 4.75618,-13.32336 5.424945,-18.097658 0.301491,-2.152331 0.283774,-2.527434 -0.181501,-3.842748 -0.483571,-1.367037 -0.57568,-1.461914 -1.482572,-1.527108 -3.223583,-0.231739 -8.021827,-1.497924 -10.724559,-2.830048 -2.684885,-1.323328 -4.60356,-2.933673 -6.219556,-5.220079 -1.404173,-1.986703 -3.224072,-5.777761 -3.224072,-6.71611 0,-0.197207 -0.155406,-0.408246 -0.345346,-0.468974 -0.434334,-0.138864 -0.498594,-7.798298 -0.06789,-8.092362 0.1526,-0.104188 0.520877,-0.892638 0.818393,-1.75211 0.798671,-2.30722 3.477264,-6.048491 5.347717,-7.469318 2.709575,-2.058237 4.994077,-2.965923 10.020377,-3.981327 3.610479,-0.729382 4.876659,-0.881721 6.221232,-0.748499 l 1.688156,0.167265 2.675054,-1.903507 c 5.70942,-4.062691 10.204404,-6.239112 15.221928,-7.370287 1.063665,-0.239797 2.022646,-0.559113 2.131067,-0.709591 0.283667,-0.393699 10.119925,-0.369801 10.380522,0.02522 0.108422,0.164349 0.756592,0.388113 1.440376,0.497255 3.208856,0.512179 7.268466,2.192906 10.774786,4.46089 2.90752,1.880665 4.414437,3.310365 6.357573,6.031796 0.92664,1.297793 1.810976,2.359623 1.965191,2.359623 0.154215,0 0.838947,-0.368635 1.521626,-0.819188 3.992729,-2.635116 10.326896,-4.018494 15.849326,-3.461485 6.23317,0.628696 11.02016,3.180755 14.13132,7.533745 1.11466,1.559594 2.44527,4.551651 2.44527,5.498542 0,0.288191 0.12433,0.523984 0.27628,0.523984 0.1648,0 0.27628,1.015898 0.27628,2.517662 0,1.384714 -0.0987,2.517662 -0.21929,2.517662 -0.12061,0 -0.38462,0.714889 -0.5867,1.588645 -0.30426,1.315577 -0.30488,1.736943 -0.004,2.451408 0.20009,0.474518 0.49519,0.94804 0.65577,1.052269 0.38505,0.249929 0.39988,9.164402 0.0157,9.427171 -0.15195,0.103924 -0.56641,1.023759 -0.92103,2.044074 -0.95076,2.735599 -2.87391,5.527456 -5.56792,8.083021 -3.90578,3.705056 -7.84156,5.459156 -12.91933,5.757894 -1.40548,0.08269 -2.66506,0.281893 -2.79907,0.442682 -0.39589,0.474984 -4.417662,16.489047 -4.865484,19.37357 -0.226293,1.4576 -0.555543,5.09496 -0.731666,8.08302 -0.302711,5.13571 -0.355422,5.46577 -0.963711,6.03464 -0.746778,0.69838 -1.992589,0.98806 -2.589175,0.60204 z m 1.657659,-5.88501 c 0,-5.29241 1.766968,-15.094373 4.365078,-24.214556 0.87391,-3.067695 1.142398,-3.701555 1.568289,-3.702485 0.282624,-5.3e-4 0.565314,-0.149162 0.628184,-0.330097 0.0715,-0.205752 -0.127,-0.313794 -0.52992,-0.288445 -0.637459,0.0401 -5.158302,-1.771363 -7.827429,-3.136387 -0.75976,-0.388549 -2.44971,-1.412737 -3.755449,-2.275969 l -2.374063,-1.569514 -2.036484,0.98376 C 80.650046,76.88206 73.595734,78.334773 67.260083,78.707085 60.854959,79.08348 52.264825,77.383804 47.829316,74.86244 46.836806,74.298247 44.986875,72.976324 43.718357,71.924829 l -2.306398,-1.91181 -1.668471,0.167284 c -0.917659,0.09201 -1.733786,0.229934 -1.813615,0.306511 -0.07983,0.07658 0.0033,0.828838 0.184828,1.671693 0.488714,2.269689 0.401648,5.479684 -0.228599,8.428081 -0.684871,3.203935 -2.950481,9.714856 -4.239442,12.183331 -1.576049,3.018269 -2.390315,4.915828 -2.221726,5.177493 0.206606,0.320671 1.102173,0.04041 2.319414,-0.725839 1.545199,-0.972701 8.409825,-1.802321 13.403037,-1.619814 6.283855,0.22968 15.522156,2.232504 21.272766,4.611841 4.239221,1.75399 8.010476,3.47505 11.05159,5.04353 3.393753,1.75035 11.52774,6.57915 12.94684,7.68599 1.313555,1.02452 1.557678,0.53044 1.557678,-3.15261 z M 106.56517,78.812842 c 2.71729,-0.462574 5.95347,-2.1825 8.56033,-4.549545 1.85717,-1.686322 2.52669,-2.523111 3.5718,-4.46416 0.7074,-1.313854 1.53118,-3.069865 1.83062,-3.902246 0.61419,-1.707357 0.9747,-5.698268 0.68318,-7.563005 -0.22196,-1.419839 -0.59247,-1.54886 -2.03128,-0.707365 -1.69027,0.988556 -1.79316,0.723561 -0.64318,-1.65664 2.45346,-5.078183 2.91688,-6.724612 2.65328,-9.426639 -0.1456,-1.492411 -0.43977,-2.419455 -1.27681,-4.023655 -1.89436,-3.630551 -6.24265,-6.865849 -10.71677,-7.973674 -2.66856,-0.660758 -8.80293,-0.703669 -11.712084,-0.08193 -2.251292,0.481143 -7.375869,2.670837 -7.375869,3.151653 0,0.17405 0.512935,1.077723 1.139859,2.008162 1.263195,1.874758 1.648487,3.385599 0.995883,3.905139 -0.224425,0.178666 -0.6083,0.251136 -0.85305,0.161043 -0.244754,-0.09009 -1.369807,-1.672314 -2.500121,-3.516048 -1.130316,-1.843735 -2.344471,-3.811958 -2.698125,-4.37383 -0.772997,-1.228108 -3.569261,-3.957806 -5.556614,-5.42434 -2.89027,-2.132826 -7.866279,-4.172034 -11.772754,-4.824569 -3.00335,-0.501678 -9.167248,-0.376035 -12.368343,0.252112 -6.314486,1.239083 -12.309402,4.566072 -17.727733,9.838332 -1.341099,1.304945 -2.583964,2.372627 -2.761921,2.372627 -0.447097,0 -0.40472,-0.890764 0.0972,-2.043061 0.268065,-0.615424 0.324753,-1.058059 0.156209,-1.219734 -0.168543,-0.161674 -1.549135,0.04622 -3.804382,0.572867 -4.471579,1.044213 -9.882261,3.509048 -12.327027,5.615575 -1.718916,1.481099 -3.274949,4.027845 -3.96071,6.48246 -0.489355,1.751596 -0.469691,5.684062 0.03876,7.752695 1.131515,4.603517 4.512569,8.472138 9.404092,10.760221 3.840398,1.796402 5.972648,2.179752 10.166104,1.827735 1.799838,-0.151086 3.385793,-0.38344 3.524345,-0.516346 0.151697,-0.145515 0.02412,-0.693915 -0.320711,-1.378534 -0.882331,-1.751789 -1.480834,-4.773262 -1.120893,-5.658697 0.162946,-0.400839 0.392586,-0.721947 0.510311,-0.713572 0.117725,0.0084 0.931023,1.40965 1.807329,3.113951 2.563355,4.985389 5.851469,8.257738 10.508019,10.45764 3.237228,1.529368 3.734709,1.648878 9.724544,2.336141 5.653585,0.648682 8.782928,0.589194 13.951966,-0.265234 5.425629,-0.896839 7.709383,-1.665818 14.154042,-4.765908 3.636528,-1.749288 5.90317,-2.707547 5.748461,-2.430255 -0.327277,0.586602 -3.349784,3.113368 -5.052639,4.223919 -0.721773,0.470721 -1.312314,1.019163 -1.312314,1.218761 0,0.520703 7.782194,4.639195 10.084094,5.336704 1.365726,0.413832 6.375102,0.46709 8.582902,0.09125 z"
             id="path1111"
             inkscape:connector-curvature="0" />
          <path
             style="fill:#050202;stroke-width:0.27058825"
             d="m 92.456738,115.72647 c -0.151952,-0.10709 -0.317503,-0.49285 -0.36789,-0.85725 -0.129902,-0.93944 -0.754914,-1.78176 -1.652437,-2.22698 -0.424535,-0.21059 -2.692285,-1.47877 -5.039448,-2.81817 -9.225708,-5.26466 -19.198716,-9.44107 -27.533333,-11.530175 -1.572986,-0.394276 -5.362398,-0.96318 -9.058586,-1.359967 -3.494898,-0.375179 -6.478684,-0.800221 -6.630637,-0.944542 -0.1824,-0.173233 1.272693,-0.215509 4.282287,-0.124409 4.577231,0.138553 9.090976,0.825822 14.942826,2.275216 4.125474,1.021803 12.130161,4.368617 18.913016,7.907647 3.823123,1.99476 11.17635,6.39677 12.225687,7.3189 0.493618,0.43378 0.738368,0.49427 1.105106,0.2731 0.399361,-0.24084 0.49627,-0.92529 0.636627,-4.49642 0.244814,-6.22881 1.78113,-14.616811 4.277388,-23.353727 0.519444,-1.818065 0.944446,-3.356224 0.944446,-3.418132 0,-0.06191 0.320917,-0.229601 0.71315,-0.372649 0.99336,-0.362283 0.72092,-0.809489 -0.727168,-1.193624 -1.171338,-0.310719 -5.662545,-2.151334 -7.721725,-3.164563 -0.531833,-0.261691 -1.980914,-1.175179 -3.22018,-2.02997 -1.239266,-0.854791 -2.392027,-1.554166 -2.561692,-1.554166 -0.169661,0 -1.306254,0.481226 -2.525758,1.069394 -3.957314,1.908608 -11.57228,3.280713 -18.214918,3.282059 C 60.99815,78.408837 58.717416,78.12233 54.468714,77.054205 49.906628,75.907293 47.179011,74.490666 43.572187,71.39493 l -1.917536,-1.645823 -1.792608,0.160574 c -0.985934,0.08831 -1.919538,0.282331 -2.074675,0.431146 -0.191907,0.184086 -0.176091,0.762756 0.04948,1.810358 1.098531,5.101807 -0.727703,12.922143 -5.050961,21.629326 -1.004841,2.023782 -1.761723,3.84274 -1.68196,4.042128 0.281317,0.703223 0.999145,0.663007 2.297961,-0.128745 1.229943,-0.749765 4.76651,-1.572169 4.76651,-1.108415 0,0.100144 -0.528164,0.408892 -1.173697,0.68611 -0.645534,0.277216 -2.20326,1.256308 -3.461615,2.175761 -1.677323,1.22558 -2.434013,1.62725 -2.835343,1.50507 -0.548313,-0.16694 -1.370702,-1.390248 -1.369618,-2.037319 3.32e-4,-0.189437 0.629924,-1.954411 1.399125,-3.922163 1.84819,-4.727997 3.947936,-10.7535 4.661144,-13.375775 0.638486,-2.347545 1.433742,-6.727546 1.445961,-7.963869 0.0085,-0.863749 -0.458995,-2.700771 -0.825715,-3.244387 -0.126167,-0.187028 -1.315884,-0.461583 -2.693769,-0.62165 -2.683831,-0.31178 -6.913354,-1.499888 -9.086993,-2.552616 -4.357311,-2.110307 -6.994153,-5.180429 -8.867903,-10.325047 -0.520183,-1.428227 -0.962603,-2.417891 -0.983154,-2.199252 -0.103953,1.105898 -0.478176,-2.28767 -0.467593,-4.240273 0.01058,-1.95129 0.36772,-4.567049 0.470396,-3.445222 0.02001,0.218639 0.388251,-0.572074 0.818313,-1.757139 1.563993,-4.309701 4.688774,-7.758062 8.742219,-9.647502 2.880009,-1.342465 9.387243,-2.694103 12.538738,-2.604461 l 2.12492,0.06044 1.785297,-1.338876 c 5.791027,-4.342954 10.743533,-6.724869 16.70423,-8.033922 1.215617,-0.266967 1.961563,-0.510375 1.657659,-0.540908 -1.315394,-0.132154 2.188077,-0.479917 4.834839,-0.479917 2.562302,0 6.07638,0.337033 4.972978,0.476956 -0.227928,0.0289 1.006235,0.396862 2.742586,0.817686 7.016054,1.700419 12.994947,5.620936 16.458634,10.792356 0.800644,1.195393 1.271875,1.650605 1.710422,1.652284 0.332925,0.0013 0.680552,-0.11445 0.772503,-0.257166 0.09195,-0.142717 0.901824,-0.6725 1.799723,-1.177296 6.140876,-3.452391 16.368825,-3.724262 22.509765,-0.598335 2.03702,1.036903 5.15905,3.806749 6.42995,5.704617 0.96614,1.442746 2.27574,4.722638 2.2834,5.718768 0.003,0.452129 0.0518,0.479209 0.27205,0.152345 0.18212,-0.270334 0.26219,0.450421 0.25023,2.252645 -0.01,1.457594 -0.0877,2.479775 -0.17339,2.271517 -0.0857,-0.208261 -0.375,0.429476 -0.6429,1.417192 -0.46825,1.726443 -0.46751,1.848624 0.0193,3.161336 0.2785,0.751016 0.52785,1.186598 0.5541,0.967959 0.0263,-0.218639 0.14727,-0.09938 0.26893,0.265017 0.29374,0.879838 0.30524,6.740969 0.0159,8.083021 -0.12571,0.583037 -0.24544,0.881181 -0.26604,0.662542 -0.0206,-0.218639 -0.39892,0.626172 -0.84071,1.877357 -1.38174,3.913187 -3.52572,6.8357 -7.159,9.758618 -1.16076,0.933809 -3.0186,2.103189 -4.12854,2.59862 -2.34421,1.046361 -6.14187,1.917491 -8.39506,1.925712 -0.86476,0.0032 -1.64505,0.118675 -1.73399,0.256714 -0.37992,0.589671 -4.304185,16.41105 -4.685905,18.892083 -0.230241,1.49646 -0.553269,4.98674 -0.717841,7.75617 -0.377822,6.35801 -0.43092,6.68741 -1.111405,6.89459 -0.300832,0.0916 -0.484399,0.26364 -0.407926,0.38233 0.249754,0.38764 -1.436657,0.6837 -1.926816,0.33827 z M 106.99747,78.97524 c 5.08309,-1.033506 9.82715,-4.773647 12.45773,-9.821467 1.56317,-2.999577 1.99219,-4.800814 2.00169,-8.404092 0.0108,-4.100002 -0.20093,-4.506676 -1.89346,-3.636503 -0.5818,0.299117 -1.11806,0.48606 -1.19169,0.415427 -0.0736,-0.07063 0.43192,-1.359739 1.12345,-2.86468 1.72894,-3.762633 2.21038,-5.717864 1.97562,-8.023531 -0.45579,-4.47647 -3.29449,-8.207026 -8.28006,-10.881493 -2.71909,-1.458627 -5.35719,-1.985234 -9.93435,-1.983051 -4.628144,0.0022 -7.324797,0.526327 -10.841496,2.107145 -2.448937,1.100841 -2.899818,1.591229 -2.296427,2.497649 1.785509,2.682214 2.216138,3.540814 2.142317,4.271421 -0.184845,1.829425 -1.140323,0.802108 -4.435186,-4.768659 C 83.933347,31.30259 77.401042,26.875741 69.387647,25.388262 66.193318,24.795317 59.913585,24.866284 56.515691,25.533727 51.62135,26.495115 47.70716,28.257695 43.145379,31.55445 c -2.878158,2.080018 -4.310151,3.325689 -5.879241,5.114276 -0.565553,0.644667 -1.11475,1.089175 -1.220436,0.987795 -0.105687,-0.101379 0.03363,-0.78664 0.3096,-1.522801 0.72806,-1.942153 0.494371,-2.045894 -2.94326,-1.306602 -4.947099,1.063915 -8.302139,2.406053 -11.958375,4.783786 -2.371728,1.542387 -2.860125,2.04616 -4.106531,4.235808 -1.490882,2.619136 -1.923832,4.603881 -1.76167,8.07591 0.17141,3.670031 0.856866,5.804192 2.724519,8.482765 2.449729,3.513379 7.094224,6.445727 11.806004,7.453833 1.835722,0.392761 2.578828,0.41393 5.672395,0.161586 1.957962,-0.159709 3.68628,-0.411582 3.840706,-0.559713 0.190181,-0.182432 0.05049,-0.778676 -0.432932,-1.847932 -0.917098,-2.028467 -1.45666,-4.592881 -1.096318,-5.210535 0.218323,-0.374223 0.595463,0.141792 2.032892,2.781462 3.162955,5.808398 8.011628,9.867015 13.734743,11.49677 2.607843,0.742625 11.175353,1.576517 14.415066,1.403043 7.366601,-0.394452 13.449407,-1.995558 20.444464,-5.38136 l 4.558563,-2.206472 -1.65766,1.45716 c -0.911712,0.801435 -2.185817,1.784222 -2.83134,2.183971 -1.991522,1.233268 -1.773455,1.514583 3.176686,4.09797 2.393246,1.248991 4.910816,2.456644 5.5946,2.683674 1.604703,0.532796 6.929896,0.564643 9.429616,0.0564 z"
             id="path1109"
             inkscape:connector-curvature="0" />
        </g>
      </g>
    </g>
  </g>
  <g
     inkscape:groupmode="layer"
     id="layer4"
     inkscape:label="Layer 4">
    <path
       style="fill:#aa0000;fill-opacity:1;stroke:none;stroke-width:0.00492187;stroke-miterlimit:4;stroke-dasharray:none"
       d=""
       id="path1090"
       inkscape:connector-curvature="0" />
    <path
       style="fill:#aa0000;fill-opacity:1;stroke:none;stroke-width:0.00492187;stroke-miterlimit:4;stroke-dasharray:none"
       d=""
       id="path1092"
       inkscape:connector-curvature="0" />
  </g>
</svg>
